<mxfile host="Electron" agent="Mozilla/5.0 (Windows NT 10.0; Win64; x64) AppleWebKit/537.36 (KHTML, like Gecko) draw.io/24.7.17 Chrome/128.0.6613.36 Electron/32.0.1 Safari/537.36" version="24.7.17">
  <diagram name="Page-1" id="Z7NCiNOt0rBZbV3qwzt3">
    <mxGraphModel dx="1644" dy="557" grid="1" gridSize="10" guides="1" tooltips="1" connect="1" arrows="1" fold="1" page="1" pageScale="1" pageWidth="850" pageHeight="1100" math="0" shadow="0">
      <root>
        <mxCell id="0" />
        <mxCell id="1" parent="0" />
        <mxCell id="7nnDh2iyXDVP4bpD3n3L-6" style="edgeStyle=orthogonalEdgeStyle;rounded=0;orthogonalLoop=1;jettySize=auto;html=1;exitX=0;exitY=0.75;exitDx=0;exitDy=0;" edge="1" parent="1" source="7nnDh2iyXDVP4bpD3n3L-2">
          <mxGeometry relative="1" as="geometry">
            <mxPoint x="300" y="155" as="targetPoint" />
          </mxGeometry>
        </mxCell>
        <mxCell id="7nnDh2iyXDVP4bpD3n3L-10" value="isValid: bool" style="edgeLabel;html=1;align=center;verticalAlign=middle;resizable=0;points=[];" vertex="1" connectable="0" parent="7nnDh2iyXDVP4bpD3n3L-6">
          <mxGeometry x="0.0568" y="3" relative="1" as="geometry">
            <mxPoint as="offset" />
          </mxGeometry>
        </mxCell>
        <mxCell id="7nnDh2iyXDVP4bpD3n3L-2" value="secondInputLargerThanFirst" style="rounded=0;whiteSpace=wrap;html=1;" vertex="1" parent="1">
          <mxGeometry x="480" y="110" width="190" height="60" as="geometry" />
        </mxCell>
        <mxCell id="7nnDh2iyXDVP4bpD3n3L-22" style="edgeStyle=orthogonalEdgeStyle;rounded=0;orthogonalLoop=1;jettySize=auto;html=1;exitX=0;exitY=0.75;exitDx=0;exitDy=0;" edge="1" parent="1" source="7nnDh2iyXDVP4bpD3n3L-3">
          <mxGeometry relative="1" as="geometry">
            <mxPoint x="300" y="245" as="targetPoint" />
          </mxGeometry>
        </mxCell>
        <mxCell id="7nnDh2iyXDVP4bpD3n3L-23" value="isInRange: bool" style="edgeLabel;html=1;align=center;verticalAlign=middle;resizable=0;points=[];" vertex="1" connectable="0" parent="7nnDh2iyXDVP4bpD3n3L-22">
          <mxGeometry x="0.1529" y="-1" relative="1" as="geometry">
            <mxPoint as="offset" />
          </mxGeometry>
        </mxCell>
        <mxCell id="7nnDh2iyXDVP4bpD3n3L-3" value="inRange1to10" style="rounded=0;whiteSpace=wrap;html=1;" vertex="1" parent="1">
          <mxGeometry x="480" y="200" width="190" height="60" as="geometry" />
        </mxCell>
        <mxCell id="7nnDh2iyXDVP4bpD3n3L-29" style="edgeStyle=orthogonalEdgeStyle;rounded=0;orthogonalLoop=1;jettySize=auto;html=1;exitX=0;exitY=0.75;exitDx=0;exitDy=0;" edge="1" parent="1" source="7nnDh2iyXDVP4bpD3n3L-4">
          <mxGeometry relative="1" as="geometry">
            <mxPoint x="670" y="335" as="targetPoint" />
          </mxGeometry>
        </mxCell>
        <mxCell id="7nnDh2iyXDVP4bpD3n3L-33" value="row: string[]" style="edgeLabel;html=1;align=center;verticalAlign=middle;resizable=0;points=[];" vertex="1" connectable="0" parent="7nnDh2iyXDVP4bpD3n3L-29">
          <mxGeometry x="0.0217" y="4" relative="1" as="geometry">
            <mxPoint as="offset" />
          </mxGeometry>
        </mxCell>
        <mxCell id="7nnDh2iyXDVP4bpD3n3L-4" value="generateOneRow" style="rounded=0;whiteSpace=wrap;html=1;" vertex="1" parent="1">
          <mxGeometry x="860" y="290" width="185" height="60" as="geometry" />
        </mxCell>
        <mxCell id="7nnDh2iyXDVP4bpD3n3L-5" value="" style="endArrow=classic;html=1;rounded=0;entryX=0;entryY=0.25;entryDx=0;entryDy=0;" edge="1" parent="1" target="7nnDh2iyXDVP4bpD3n3L-2">
          <mxGeometry width="50" height="50" relative="1" as="geometry">
            <mxPoint x="300" y="125" as="sourcePoint" />
            <mxPoint x="430" y="270" as="targetPoint" />
          </mxGeometry>
        </mxCell>
        <mxCell id="7nnDh2iyXDVP4bpD3n3L-9" value="start: number, end: number" style="edgeLabel;html=1;align=center;verticalAlign=middle;resizable=0;points=[];" vertex="1" connectable="0" parent="7nnDh2iyXDVP4bpD3n3L-5">
          <mxGeometry x="-0.0613" relative="1" as="geometry">
            <mxPoint as="offset" />
          </mxGeometry>
        </mxCell>
        <mxCell id="7nnDh2iyXDVP4bpD3n3L-12" value="renderMultiplicationTable" style="rounded=0;whiteSpace=wrap;html=1;" vertex="1" parent="1">
          <mxGeometry x="130" y="110" width="150" height="370" as="geometry" />
        </mxCell>
        <mxCell id="7nnDh2iyXDVP4bpD3n3L-14" value="" style="endArrow=classic;html=1;rounded=0;entryX=0;entryY=0.25;entryDx=0;entryDy=0;" edge="1" parent="1">
          <mxGeometry width="50" height="50" relative="1" as="geometry">
            <mxPoint x="-120" y="150" as="sourcePoint" />
            <mxPoint x="130" y="150" as="targetPoint" />
          </mxGeometry>
        </mxCell>
        <mxCell id="7nnDh2iyXDVP4bpD3n3L-15" value="start: number, end: number" style="edgeLabel;html=1;align=center;verticalAlign=middle;resizable=0;points=[];" vertex="1" connectable="0" parent="7nnDh2iyXDVP4bpD3n3L-14">
          <mxGeometry x="-0.0613" relative="1" as="geometry">
            <mxPoint x="3" as="offset" />
          </mxGeometry>
        </mxCell>
        <mxCell id="7nnDh2iyXDVP4bpD3n3L-16" value="" style="endArrow=classic;html=1;rounded=0;entryX=0;entryY=0.25;entryDx=0;entryDy=0;" edge="1" parent="1" target="7nnDh2iyXDVP4bpD3n3L-3">
          <mxGeometry width="50" height="50" relative="1" as="geometry">
            <mxPoint x="300" y="215" as="sourcePoint" />
            <mxPoint x="425" y="220" as="targetPoint" />
          </mxGeometry>
        </mxCell>
        <mxCell id="7nnDh2iyXDVP4bpD3n3L-17" value="num: number" style="edgeLabel;html=1;align=center;verticalAlign=middle;resizable=0;points=[];" vertex="1" connectable="0" parent="7nnDh2iyXDVP4bpD3n3L-16">
          <mxGeometry x="-0.0613" relative="1" as="geometry">
            <mxPoint as="offset" />
          </mxGeometry>
        </mxCell>
        <mxCell id="7nnDh2iyXDVP4bpD3n3L-24" value="" style="endArrow=classic;html=1;rounded=0;entryX=-0.014;entryY=0.367;entryDx=0;entryDy=0;entryPerimeter=0;" edge="1" parent="1" target="7nnDh2iyXDVP4bpD3n3L-4">
          <mxGeometry width="50" height="50" relative="1" as="geometry">
            <mxPoint x="680" y="312" as="sourcePoint" />
            <mxPoint x="805" y="310" as="targetPoint" />
          </mxGeometry>
        </mxCell>
        <mxCell id="7nnDh2iyXDVP4bpD3n3L-25" value="rowStart: number,&lt;div&gt;&amp;nbsp;rowEnd: number&lt;/div&gt;" style="edgeLabel;html=1;align=center;verticalAlign=middle;resizable=0;points=[];" vertex="1" connectable="0" parent="7nnDh2iyXDVP4bpD3n3L-24">
          <mxGeometry x="-0.0613" relative="1" as="geometry">
            <mxPoint as="offset" />
          </mxGeometry>
        </mxCell>
        <mxCell id="7nnDh2iyXDVP4bpD3n3L-31" style="edgeStyle=orthogonalEdgeStyle;rounded=0;orthogonalLoop=1;jettySize=auto;html=1;exitX=0;exitY=0.75;exitDx=0;exitDy=0;" edge="1" parent="1">
          <mxGeometry relative="1" as="geometry">
            <mxPoint x="-120" y="310" as="targetPoint" />
            <mxPoint x="130" y="310" as="sourcePoint" />
          </mxGeometry>
        </mxCell>
        <mxCell id="7nnDh2iyXDVP4bpD3n3L-32" value="multiplationTable: string" style="edgeLabel;html=1;align=center;verticalAlign=middle;resizable=0;points=[];" vertex="1" connectable="0" parent="7nnDh2iyXDVP4bpD3n3L-31">
          <mxGeometry x="-0.198" y="1" relative="1" as="geometry">
            <mxPoint x="-20" y="-1" as="offset" />
          </mxGeometry>
        </mxCell>
        <mxCell id="7nnDh2iyXDVP4bpD3n3L-34" style="edgeStyle=orthogonalEdgeStyle;rounded=0;orthogonalLoop=1;jettySize=auto;html=1;exitX=0;exitY=0.75;exitDx=0;exitDy=0;" edge="1" parent="1" source="7nnDh2iyXDVP4bpD3n3L-36">
          <mxGeometry relative="1" as="geometry">
            <mxPoint x="1045" y="335" as="targetPoint" />
          </mxGeometry>
        </mxCell>
        <mxCell id="7nnDh2iyXDVP4bpD3n3L-35" value="oneMultiplation: string" style="edgeLabel;html=1;align=center;verticalAlign=middle;resizable=0;points=[];" vertex="1" connectable="0" parent="7nnDh2iyXDVP4bpD3n3L-34">
          <mxGeometry x="0.0217" y="4" relative="1" as="geometry">
            <mxPoint as="offset" />
          </mxGeometry>
        </mxCell>
        <mxCell id="7nnDh2iyXDVP4bpD3n3L-36" value="generateOneEquation" style="rounded=0;whiteSpace=wrap;html=1;" vertex="1" parent="1">
          <mxGeometry x="1235" y="290" width="185" height="60" as="geometry" />
        </mxCell>
        <mxCell id="7nnDh2iyXDVP4bpD3n3L-37" value="" style="endArrow=classic;html=1;rounded=0;entryX=-0.014;entryY=0.367;entryDx=0;entryDy=0;entryPerimeter=0;" edge="1" parent="1" target="7nnDh2iyXDVP4bpD3n3L-36">
          <mxGeometry width="50" height="50" relative="1" as="geometry">
            <mxPoint x="1055" y="312" as="sourcePoint" />
            <mxPoint x="1180" y="310" as="targetPoint" />
          </mxGeometry>
        </mxCell>
        <mxCell id="7nnDh2iyXDVP4bpD3n3L-38" value="num1: int, num2: int" style="edgeLabel;html=1;align=center;verticalAlign=middle;resizable=0;points=[];" vertex="1" connectable="0" parent="7nnDh2iyXDVP4bpD3n3L-37">
          <mxGeometry x="-0.0613" relative="1" as="geometry">
            <mxPoint as="offset" />
          </mxGeometry>
        </mxCell>
        <mxCell id="7nnDh2iyXDVP4bpD3n3L-39" style="edgeStyle=orthogonalEdgeStyle;rounded=0;orthogonalLoop=1;jettySize=auto;html=1;exitX=0;exitY=0.75;exitDx=0;exitDy=0;" edge="1" parent="1" source="7nnDh2iyXDVP4bpD3n3L-41">
          <mxGeometry relative="1" as="geometry">
            <mxPoint x="290" y="335" as="targetPoint" />
          </mxGeometry>
        </mxCell>
        <mxCell id="7nnDh2iyXDVP4bpD3n3L-40" value="table: string[][]" style="edgeLabel;html=1;align=center;verticalAlign=middle;resizable=0;points=[];" vertex="1" connectable="0" parent="7nnDh2iyXDVP4bpD3n3L-39">
          <mxGeometry x="0.0217" y="4" relative="1" as="geometry">
            <mxPoint as="offset" />
          </mxGeometry>
        </mxCell>
        <mxCell id="7nnDh2iyXDVP4bpD3n3L-41" value="generateTable" style="rounded=0;whiteSpace=wrap;html=1;" vertex="1" parent="1">
          <mxGeometry x="480" y="290" width="190" height="60" as="geometry" />
        </mxCell>
        <mxCell id="7nnDh2iyXDVP4bpD3n3L-42" value="" style="endArrow=classic;html=1;rounded=0;entryX=-0.014;entryY=0.367;entryDx=0;entryDy=0;entryPerimeter=0;" edge="1" parent="1" target="7nnDh2iyXDVP4bpD3n3L-41">
          <mxGeometry width="50" height="50" relative="1" as="geometry">
            <mxPoint x="300" y="312" as="sourcePoint" />
            <mxPoint x="425" y="310" as="targetPoint" />
          </mxGeometry>
        </mxCell>
        <mxCell id="7nnDh2iyXDVP4bpD3n3L-43" value="start: number, end: number" style="edgeLabel;html=1;align=center;verticalAlign=middle;resizable=0;points=[];" vertex="1" connectable="0" parent="7nnDh2iyXDVP4bpD3n3L-42">
          <mxGeometry x="-0.0613" relative="1" as="geometry">
            <mxPoint as="offset" />
          </mxGeometry>
        </mxCell>
        <mxCell id="7nnDh2iyXDVP4bpD3n3L-46" style="edgeStyle=orthogonalEdgeStyle;rounded=0;orthogonalLoop=1;jettySize=auto;html=1;exitX=0;exitY=0.75;exitDx=0;exitDy=0;" edge="1" parent="1" source="7nnDh2iyXDVP4bpD3n3L-45">
          <mxGeometry relative="1" as="geometry">
            <mxPoint x="290" y="435" as="targetPoint" />
          </mxGeometry>
        </mxCell>
        <mxCell id="7nnDh2iyXDVP4bpD3n3L-48" value="renderedTable: string" style="edgeLabel;html=1;align=center;verticalAlign=middle;resizable=0;points=[];" vertex="1" connectable="0" parent="7nnDh2iyXDVP4bpD3n3L-46">
          <mxGeometry x="-0.2161" y="3" relative="1" as="geometry">
            <mxPoint x="-15" as="offset" />
          </mxGeometry>
        </mxCell>
        <mxCell id="7nnDh2iyXDVP4bpD3n3L-52" style="edgeStyle=orthogonalEdgeStyle;rounded=0;orthogonalLoop=1;jettySize=auto;html=1;exitX=1;exitY=0.25;exitDx=0;exitDy=0;entryX=0;entryY=0.25;entryDx=0;entryDy=0;" edge="1" parent="1" source="7nnDh2iyXDVP4bpD3n3L-45" target="7nnDh2iyXDVP4bpD3n3L-51">
          <mxGeometry relative="1" as="geometry" />
        </mxCell>
        <mxCell id="7nnDh2iyXDVP4bpD3n3L-54" value="table: string[][],&lt;div&gt;columnIndex: number&lt;/div&gt;" style="edgeLabel;html=1;align=center;verticalAlign=middle;resizable=0;points=[];" vertex="1" connectable="0" parent="7nnDh2iyXDVP4bpD3n3L-52">
          <mxGeometry x="0.0982" y="1" relative="1" as="geometry">
            <mxPoint as="offset" />
          </mxGeometry>
        </mxCell>
        <mxCell id="7nnDh2iyXDVP4bpD3n3L-45" value="render" style="rounded=0;whiteSpace=wrap;html=1;" vertex="1" parent="1">
          <mxGeometry x="480" y="390" width="190" height="60" as="geometry" />
        </mxCell>
        <mxCell id="7nnDh2iyXDVP4bpD3n3L-47" value="" style="endArrow=classic;html=1;rounded=0;entryX=0;entryY=0.25;entryDx=0;entryDy=0;" edge="1" parent="1" target="7nnDh2iyXDVP4bpD3n3L-45">
          <mxGeometry width="50" height="50" relative="1" as="geometry">
            <mxPoint x="290" y="405" as="sourcePoint" />
            <mxPoint x="520" y="270" as="targetPoint" />
          </mxGeometry>
        </mxCell>
        <mxCell id="7nnDh2iyXDVP4bpD3n3L-49" value="table: string[][]" style="edgeLabel;html=1;align=center;verticalAlign=middle;resizable=0;points=[];" vertex="1" connectable="0" parent="7nnDh2iyXDVP4bpD3n3L-47">
          <mxGeometry x="0.0456" y="-1" relative="1" as="geometry">
            <mxPoint as="offset" />
          </mxGeometry>
        </mxCell>
        <mxCell id="7nnDh2iyXDVP4bpD3n3L-53" style="edgeStyle=orthogonalEdgeStyle;rounded=0;orthogonalLoop=1;jettySize=auto;html=1;exitX=0;exitY=0.75;exitDx=0;exitDy=0;entryX=1;entryY=0.75;entryDx=0;entryDy=0;" edge="1" parent="1" source="7nnDh2iyXDVP4bpD3n3L-51" target="7nnDh2iyXDVP4bpD3n3L-45">
          <mxGeometry relative="1" as="geometry" />
        </mxCell>
        <mxCell id="7nnDh2iyXDVP4bpD3n3L-55" value="equationLength: number" style="edgeLabel;html=1;align=center;verticalAlign=middle;resizable=0;points=[];" vertex="1" connectable="0" parent="7nnDh2iyXDVP4bpD3n3L-53">
          <mxGeometry x="-0.193" y="3" relative="1" as="geometry">
            <mxPoint x="-13" as="offset" />
          </mxGeometry>
        </mxCell>
        <mxCell id="7nnDh2iyXDVP4bpD3n3L-51" value="calculateEquationLength" style="rounded=0;whiteSpace=wrap;html=1;" vertex="1" parent="1">
          <mxGeometry x="860" y="390" width="180" height="60" as="geometry" />
        </mxCell>
      </root>
    </mxGraphModel>
  </diagram>
</mxfile>
